<?xml version="1.0" encoding="utf-8"?>
<!-- Generator: Adobe Illustrator 22.0.1, SVG Export Plug-In . SVG Version: 6.00 Build 0)  -->
<svg version="1.1" id="레이어_1" focusable="false"
	 xmlns="http://www.w3.org/2000/svg" xmlns:xlink="http://www.w3.org/1999/xlink" x="0px" y="0px" viewBox="0 0 448 512"
	 style="enable-background:new 0 0 448 512;" xml:space="preserve">
<style type="text/css">
	.st0{fill:#FFFFFF;}
</style>
<path class="st0" d="M119.3,479H19.7C8.8,479,0,470.2,0,459.3V50.7C0,39.8,8.8,31,19.7,31h99.5c10.9,0,19.7,8.8,19.7,19.7v408.5
	C139,470.2,130.2,479,119.3,479z"/>
<path class="st0" d="M428.3,479h-99.5c-10.9,0-19.7-8.8-19.7-19.7V50.7c0-10.9,8.8-19.7,19.7-19.7h99.5c10.9,0,19.7,8.8,19.7,19.7
	v408.5C448,470.2,439.2,479,428.3,479z"/>
</svg>
