<?xml version="1.0" encoding="utf-8"?>
<!-- Generator: Adobe Illustrator 22.0.1, SVG Export Plug-In . SVG Version: 6.00 Build 0)  -->
<svg version="1.1" id="레이어_1" xmlns="http://www.w3.org/2000/svg" xmlns:xlink="http://www.w3.org/1999/xlink" x="0px"
	 y="0px" viewBox="0 0 283.5 283.5" style="enable-background:new 0 0 283.5 283.5;" xml:space="preserve">
<style type="text/css">
	.st0{fill:#FFFFFF;}
</style>
<g>
	<polygon class="st0" points="154.7,262.7 154.7,262.7 164.9,272.9 	"/>
	<polygon class="st0" points="179.4,229.8 167.9,218.3 155.2,231 167.9,218.3 	"/>
	
		<rect x="188.6" y="215.9" transform="matrix(0.7071 -0.7071 0.7071 0.7071 -100.7906 204.6947)" class="st0" width="16.2" height="16.2"/>
	<polygon class="st0" points="166.7,248.3 166.7,248.3 155.2,259.8 	"/>
	<polygon class="st0" points="154.7,233.9 154.7,233.9 166.2,245.4 	"/>
	<rect x="238.7" y="233.9" class="st0" width="0" height="5.2"/>
	
		<rect x="233.6" y="222.9" transform="matrix(0.7071 -0.7071 0.7071 0.7071 -87.7054 234.0676)" class="st0" width="10.3" height="0"/>
	<polygon class="st0" points="238.2,231 225.5,218.3 219.8,224 225.5,218.3 	"/>
	<path class="st0" d="M183.2,72.4c-1.2,0-2.4,0.1-3.5,0.4c-2.3-11.1-12.2-19.3-23.7-19.3c-13.3,0-24.2,10.9-24.2,24.2
		c0,13.3,10.9,24.2,24.2,24.2h27.2c8.1,0,14.8-6.6,14.8-14.8S191.3,72.4,183.2,72.4z"/>
	<path class="st0" d="M94.2,8.2C86,8.2,79.3,14.8,79.3,23S86,37.9,94.2,37.9c8.2,0,14.9-6.7,14.9-14.9S102.3,8.2,94.2,8.2z"/>
	<polygon class="st0" points="233.5,239.1 238.7,239.1 238.7,233.9 	"/>
	<path class="st0" d="M267.9,181.4v-109l-27.3,18.9v90.2h-9.7v-65.7l-27.3,18.9v46.9h-43.1c-0.5-7.8-4.4-14.7-10.3-19.2v-11.3
		c2.4-0.5,4.3-2.6,4.3-5.2c0-2.9-2.4-5.3-5.3-5.3h-22.4v-15.9H69.6V75.9H0v199.4h67.8h0h215.7v-93.9H267.9z M243,92.5L265.4,77v66.8
		H243V92.5z M243,150.8h22.4v3.6H243V150.8z M243,161.4h22.4v20H243V161.4z M206,135.8l22.4-15.5v23.5H206V135.8z M206,150.8h22.4
		v3.6H206V150.8z M206,161.4h22.4v20H206V161.4z M149.2,142.8c1.6,0,2.9,1.3,2.9,2.9c0,1.6-1.3,2.9-2.9,2.9h-30
		c-1.6,0-2.9-1.3-2.9-2.9c0-1.6,1.3-2.9,2.9-2.9H149.2z M147.8,150.9v9.6c-4-2.4-8.6-3.8-13.6-3.8s-9.6,1.4-13.6,3.8v-9.6H147.8z
		 M107.8,199.7c-4-2.4-8.6-3.8-13.6-3.8c-5,0-9.6,1.4-13.6,3.8v-9.6h27.2V199.7z M107.8,183v4.7H79.1c-1.6,0-2.9-1.3-2.9-2.9
		s1.3-2.9,2.9-2.9h28.7C107.8,182.4,107.8,182.7,107.8,183z M79.1,179.6c-2.9,0-5.3,2.4-5.3,5.3c0,2.6,1.8,4.7,4.3,5.2v11.3
		c-6.3,4.8-10.3,12.4-10.3,20.9v49.4H3.6V79.6H66V128h57.2v12.3h-4c-2.9,0-5.3,2.4-5.3,5.3c0,2.6,1.8,4.7,4.3,5.2v11.3
		c-5.4,4.2-9.2,10.4-10.1,17.4H79.1z M125.2,272.9h-4.7h-2.4h-7.9v-66.4v-2v-3.2v-11.3v-2.3h-1c0.4,0,0.7-0.1,1-0.2V183
		c0-0.3,0-0.5,0-0.8c0-0.8,0.1-1.7,0.2-2.5c0.8-5.7,3.6-10.8,7.7-14.5c0.8-0.7,1.6-1.4,2.4-1.9c3.9-2.7,8.6-4.3,13.6-4.3
		c5.1,0,9.7,1.6,13.6,4.3c0.9,0.6,1.7,1.2,2.4,1.9c4.5,4,7.4,9.7,7.8,16.1h-9.5l-23.3,23.3V272.9z M154.7,273v-0.1v-10.2v0
		l10.2,10.2l0.1,0.1H154.7z M166.7,248.3v23l-11.5-11.5L166.7,248.3L166.7,248.3z M154.7,256.8v-23v0l11.5,11.5L154.7,256.8z
		 M166.7,242.4L155.2,231l12.7-12.7l11.5,11.5h-12.7V242.4z M154.7,228v-10.3H165L154.7,228z M208.2,229.8h-23l11.5-11.5
		L208.2,229.8z M199.6,217.8h23l-11.5,11.5L199.6,217.8z M182.3,229.2l-11.5-11.5h23L182.3,229.2z M224.3,239.1h-10v9l-10,10v14.8
		h-35.3v-40.7h55.2V239.1z M229.6,239.5h-2.9v-0.4v-9.4H214h0l5.7-5.7l5.7-5.7l12.7,12.7l-8.2,8.2L229.6,239.5z M238.7,228
		L238.7,228L238.7,228l-10.3-10.3h0h10.3h0V228z M281,272.9h-10.9v-33.7h-29v-23.8h-88.8v57.5h-24.6v-67.2l21.8-21.8h8.6h2.4h43.1
		h27.3h9.7h27.3H281V272.9z"/>
	<polygon class="st0" points="154.7,272.9 154.7,273 165,273 164.9,272.9 	"/>
	<polygon class="st0" points="214,229.8 214,229.8 219.8,224 	"/>
	<polygon class="st0" points="228.4,217.8 238.7,228 238.7,228 228.4,217.8 	"/>
	<polygon class="st0" points="233.1,239.5 238.7,239.5 238.7,239.1 233.5,239.1 	"/>
	
		<rect x="174.2" y="215.4" transform="matrix(0.7071 -0.7071 0.7071 0.7071 -104.6539 194.3593)" class="st0" width="16.2" height="16.2"/>
	
		<rect x="203" y="215.4" transform="matrix(0.7071 -0.7071 0.7071 0.7071 -96.2165 214.7293)" class="st0" width="16.2" height="16.2"/>
</g>
</svg>
