<?xml version="1.0" encoding="utf-8"?>
<!-- Generator: Adobe Illustrator 22.0.1, SVG Export Plug-In . SVG Version: 6.00 Build 0)  -->
<svg version="1.1" id="레이어_1" xmlns="http://www.w3.org/2000/svg" xmlns:xlink="http://www.w3.org/1999/xlink" x="0px"
	 y="0px" viewBox="0 0 283.5 283.5" style="enable-background:new 0 0 283.5 283.5;" xml:space="preserve">
<style type="text/css">
	.st0{fill:#FFFFFF;}
</style>
<g>
	<path class="st0" d="M0,161.5h283.5v-13.8h-1.8l-83.1-83.1v-1.9h-4.3v1.9l-53,53l-53-53v-1.9h-4.3v1.9L0.7,147.7H0V161.5z
		 M251.5,147.7l-51.9-80.5l80.5,80.5H251.5z M83,75.6l0.1-0.3h0.7h4.3h0.7l0.1,0.3v44.7l6.5,24.3h-6.2L86,132.3l-3.3,12.3h-6.2
		l6.5-24.1L83,75.6z M83.4,74.2l0.4-1.5v1.5H83.4z M88.1,74.2v-1.5l0.4,1.5H88.1z M87.1,74.2h-2.2V69l1.1-3.8l1.1,3.8V74.2z
		 M83.8,68.8l-1.5,5.4h-0.3v1.2l-20.6,72.2H32.2l51.6-80.1V68.8z M81.9,79.4v40.8l-6.8,25.4h8.4l2.5-9.2l2.5,9.2h8.4L90,120.2V79.4
		l19.5,68.3H62.4L81.9,79.4z M110.7,147.7L90,75.5v-1.2h-0.3l-1.5-5.4v-1.3l40.4,62.7l-17.4,17.4H110.7z M129.2,131.2l10.6,16.5
		h-27.1L129.2,131.2z M141.1,147.7l-11.1-17.3l11.3-11.3l11.3,11.3l-11.1,17.3H141.1z M153.2,131.2l16.5,16.5h-27.1L153.2,131.2z
		 M153.8,130.3l40.4-62.7v1.3l-1.5,5.4h-0.2V75l-20.8,72.7h-0.5L153.8,130.3z M193.6,75.3h0.7h4.3h0.7l0.2,0.8v44.2l6.5,24.3h-6.2
		l-3.3-12.3l-3.3,12.3h-6.2l6.5-24.1L193.6,75.3z M193.8,74.2l0.4-1.5v1.5H193.8z M198.6,74.2v-1.5l0.4,1.5H198.6z M197.5,74.2h-2.2
		V69l1.1-3.8l1.1,3.8V74.2z M192.5,78.9v41.3l-6.8,25.4h8.4l2.5-9.2l2.5,9.2h8.4l-6.8-25.4V79.9l19.4,67.8h-47.1L192.5,78.9z
		 M221.1,147.7l-20.5-71.7v-1.7h-0.5l-1.5-5.4v-1.3l51.6,80.1H221.1z M193.2,67.2L153,129.5L142,118.4L193.2,67.2z M129.3,129.5
		L89.2,67.2l51.3,51.3L129.3,129.5z M82.8,67.2l-51.9,80.5H2.3L82.8,67.2z M282.4,148.8v11.7H1.1v-11.6l0.1-0.1H282.4z"/>
	<path class="st0" d="M81.9,180.9v40H90v-40l6.9-16.9H75L81.9,180.9z"/>
	<path class="st0" d="M192.3,180.9v40h8.1v-40l6.9-16.9h-21.9L192.3,180.9z"/>
</g>
</svg>
