<?xml version="1.0" encoding="utf-8"?>
<!-- Generator: Adobe Illustrator 22.0.1, SVG Export Plug-In . SVG Version: 6.00 Build 0)  -->
<svg version="1.1" id="레이어_1" xmlns="http://www.w3.org/2000/svg" xmlns:xlink="http://www.w3.org/1999/xlink" x="0px"
	 y="0px" viewBox="0 0 283.5 283.5" style="enable-background:new 0 0 283.5 283.5;" xml:space="preserve">
<style type="text/css">
	.st0{fill:#FFFFFF;}
</style>
<path class="st0" d="M283.5,88.7v-9.8H278L78,17.3c0-0.2,0.1-0.4,0.1-0.6c0-2.9-2.3-5.2-5.2-5.2c-2.9,0-5.2,2.3-5.2,5.2
	c0,1.2,0.4,2.2,1,3.1L13.7,79.2L0,92.8v14.7h51.9v1.5h-3v18h19.4V259h-8c-3,0-5.4,2.4-5.4,5.4v7.5h55.5v-7.5c0-3-2.4-5.4-5.4-5.4h-8
	V127.1h19.4v-18h-3v-1.5h149.9v52.9c-1.8,0.4-3.1,2-3.1,3.9c0,1.9,1.3,3.4,3.1,3.9v6c-0.8,0.5-1.4,1.4-1.4,2.4
	c0,1.6,1.3,2.9,2.9,2.9c2.5,0,4.6,2.1,4.6,4.6c0,2.5-2.1,4.6-4.6,4.6c-1.3,0-2.5-0.5-3.3-1.4c-1.1-1.1-2.9-1.2-4.1-0.1
	c-1.1,1.1-1.2,2.9-0.1,4.1c1.9,2.1,4.7,3.2,7.5,3.2c5.7,0,10.3-4.6,10.3-10.3c0-5.5-4.4-10-9.9-10.3v-5.6c1.8-0.4,3.1-2,3.1-3.9
	c0-1.9-1.3-3.4-3.1-3.9V107L283.5,88.7z M75.8,21c0.7-0.5,1.3-1.1,1.7-1.9l194,59.8H105.7V68.7L97,59.9v-4.5L78.1,36.5h-2.3V21z
	 M70.2,38.5h7.1L95,56.2v3.2H70.2V38.5z M70,21.2v15.3h-1.8v22.8h-8.8v19.5H16.5L70,21.2z M51.9,105.7h-50v-12l12.8-12.8h44.7v19.5
	h-7.6V105.7z M72.3,127.1V259h-2.2V127.1H72.3z M74.2,252.4H91v6.6H74.2V252.4z M74.2,250.5v-8.7H91v8.7H74.2z M74.2,239.9v-8.7H91
	v8.7H74.2z M74.2,229.2v-8.7H91v8.7H74.2z M74.2,218.6v-8.7H91v8.7H74.2z M74.2,207.9v-8.7H91v8.7H74.2z M74.2,197.3v-8.7H91v8.7
	H74.2z M74.2,186.7v-8.7H91v8.7H74.2z M74.2,176v-8.7H91v8.7H74.2z M74.2,165.4v-8.7H91v8.7H74.2z M74.2,154.7V146H91v8.7H74.2z
	 M74.2,144.1v-8.7H91v8.7H74.2z M74.2,133.4v-6.3H91v6.3H74.2z M105,260.9c1.9,0,3.5,1.6,3.5,3.5v5.6H56.8v-5.6
	c0-1.9,1.6-3.5,3.5-3.5h8h4.1h20.6H97H105z M95,259h-2.2V127.1H95V259z M263.8,105.7H113.3v-5.4h-7.6V80.8h175.8v7.1L263.8,105.7z"
	/>
</svg>
