<?xml version="1.0" encoding="utf-8"?>
<!-- Generator: Adobe Illustrator 22.0.1, SVG Export Plug-In . SVG Version: 6.00 Build 0)  -->
<svg version="1.1" id="레이어_1" xmlns="http://www.w3.org/2000/svg" xmlns:xlink="http://www.w3.org/1999/xlink" x="0px"
	 y="0px" viewBox="0 0 283.5 283.5" style="enable-background:new 0 0 283.5 283.5;" xml:space="preserve">
<style type="text/css">
	.st0{fill:#FFFFFF;}
	.st1{fill:#8EC6EF;}
</style>
<path class="st0" d="M279.7,37c-45.1-9.7-92.8-9.7-138-0.2c-45.2-9.5-92.8-9.5-138,0.2C1.6,37.5,0,39.4,0,41.7v193.7
	c0,1.5,0.7,2.8,1.8,3.7c1.1,0.9,2.6,1.3,4,1c44.1-9.5,90.8-9.5,134.9,0c0.2,0,0.4,0,0.6,0.1c0.1,0,0.3,0,0.4,0c0,0,0,0,0,0
	c0.3,0,0.6,0,0.9-0.1c0,0,0.1,0,0.1,0c44.1-9.5,90.8-9.5,134.9,0c0.3,0.1,0.7,0.1,1,0.1c1.1,0,2.2-0.4,3-1.1
	c1.1-0.9,1.8-2.3,1.8-3.7V41.7C283.5,39.4,281.9,37.5,279.7,37z M9.6,229.5V45.6c41.7-8.4,85.6-8.4,127.3,0v183.9
	c-20.9-4.1-42.3-6.1-63.7-6.1S30.5,225.4,9.6,229.5z M273.9,229.5c-20.9-4.1-42.3-6.1-63.7-6.1s-42.8,2-63.7,6.1V45.6
	c41.7-8.4,85.6-8.4,127.3,0V229.5z"/>
<g>
	<path class="st1" d="M132.4,99.8l-5.9-1.3C91.7,91,54.9,91,20,98.5l-5.9,1.3V55.1l3.7-0.8c36.3-7.8,74.7-7.8,111,0l3.7,0.8V99.8z
		 M73.3,84.3c16.6,0,33.3,1.5,49.6,4.6v-27c-32.5-6.5-66.6-6.5-99.1,0v27C40,85.8,56.6,84.3,73.3,84.3z"/>
</g>
<g>
	<path class="st1" d="M128.8,115.5c-34.8-7.5-76.1-6.8-111,0.7v-9c36.3-7.8,74.7-7.8,111,0V115.5z"/>
</g>
<g>
	<path class="st1" d="M128.8,131.7c-34.8-7.5-76.1-6.9-111,0.6v-8.9c36.3-7.8,74.7-7.8,111,0V131.7z"/>
</g>
<g>
	<path class="st1" d="M17.8,148.1v-8.6c20.3-4.3,41.1-6.3,61.9-5.8l-0.3,8.6C59.5,141.8,37.2,143.9,17.8,148.1z"/>
</g>
<g>
	<path class="st0" d="M269.4,218.5l-5.9-1.3c-34.8-7.5-71.6-7.5-106.5,0l-5.9,1.3v-62.6l3.7-0.8c36.3-7.8,74.7-7.8,111,0l3.7,0.8
		V218.5z M210.2,203c16.6,0,33.3,1.5,49.6,4.6v-44.9c-32.5-6.5-66.6-6.5-99.1,0v44.9C176.9,204.6,193.6,203,210.2,203z"/>
</g>
<g>
	<path class="st1" d="M264.6,57.6c-35.7-7.7-73-7.7-108.7,0c0-2.3,0-4.5,0-6.8c35.7-7.7,73-7.7,108.7,0
		C264.6,53.1,264.6,55.4,264.6,57.6z"/>
</g>
<g>
	<path class="st1" d="M264.6,71.4c-35.7-7.7-73-7.7-108.7,0c0-2.3,0-4.5,0-6.8c35.7-7.7,73-7.7,108.7,0
		C264.6,66.9,264.6,69.1,264.6,71.4z"/>
</g>
<g>
	<path class="st1" d="M264.6,85.2c-35.7-7.7-73-7.7-108.7,0c0-2.3,0-4.5,0-6.8c35.7-7.7,73-7.7,108.7,0
		C264.6,80.7,264.6,82.9,264.6,85.2z"/>
</g>
<g>
	<path class="st1" d="M264.6,99c-35.7-7.7-73-7.7-108.7,0c0-2.3,0-4.5,0-6.8c35.7-7.7,73-7.7,108.7,0
		C264.6,94.4,264.6,96.7,264.6,99z"/>
</g>
<g>
	<path class="st1" d="M264.6,112.8c-35.7-7.7-73-7.7-108.7,0c0-2.3,0-4.5,0-6.8c35.7-7.7,73-7.7,108.7,0
		C264.6,108.2,264.6,110.5,264.6,112.8z"/>
</g>
<g>
	<path class="st1" d="M127.6,198.2c0,8.5-7.6,17.4-17.2,17.5c-9.6,0-17.2-8.9-17.2-17.5c0-8.5,7.6-17.3,17.2-17.2
		C120,180.9,127.6,189.7,127.6,198.2z"/>
</g>
</svg>
