<?xml version="1.0" encoding="utf-8"?>
<!-- Generator: Adobe Illustrator 22.0.1, SVG Export Plug-In . SVG Version: 6.00 Build 0)  -->
<svg version="1.1" id="레이어_1" xmlns="http://www.w3.org/2000/svg" xmlns:xlink="http://www.w3.org/1999/xlink" x="0px"
	 y="0px" viewBox="0 0 283.5 283.5" style="enable-background:new 0 0 283.5 283.5;" xml:space="preserve">
<style type="text/css">
	.st0{fill:#FFFFFF;}
	.st1{fill:#4E708E;}
	.st2{enable-background:new    ;}
	.st3{fill:#76A4CE;}
</style>
<g>
	<g>
		<path class="st0" d="M1.3,73.8L70.7,64l-0.3,139.8L1,213.5L1.3,73.8z M68,123.6l-0.3-0.2l0.1-55.1l0.3-0.3l-0.6-0.8L67,67.6
			L4.9,76.3L4.4,76l-0.3,0.5L3.8,77l0.3,0.2L4,132.3l-0.3,0.3L4,133l0.3,0.4l0.5-0.5l62.1-8.7l0.5,0.4l0.3-0.5L68,123.6 M48.9,163.1
			v-3.3l-45,6.3v3.3L48.9,163.1 M49,154.4v-3.3l-45,6.3v3.3L49,154.4 M49,145.7v-3.3l-45,6.3v3.3L49,145.7 M49,137v-3.3L4,140v3.3
			L49,137 M48.9,171.8v-3.3l-45,6.3v3.3L48.9,171.8 M30.3,183.1v-3.3l-26.4,3.7v3.3L30.3,183.1"/>
	</g>
	<g>
		<polygon points="49,159.8 48.9,163.1 3.9,169.4 3.9,166.2 		"/>
	</g>
	<g>
		<polygon points="30.3,179.9 30.3,183.1 3.9,186.8 3.9,183.6 		"/>
	</g>
	<g>
		<path d="M0.3,72.8l71.4-10l-0.3,141.9L0,214.8L0.3,72.8z M70.4,203.8L70.7,64L1.3,73.8L1,213.5L70.4,203.8"/>
	</g>
	<g>
		<path class="st1" d="M4,133L4,133L4,133z"/>
	</g>
	<g class="st2">
		<g>
			<polygon class="st3" points="36.7,100.1 67.8,68.2 67.7,123.3 			"/>
		</g>
		<g>
			<polygon points="67.7,123.3 68,123.6 67.7,124 67.4,124.5 66.9,124.1 35.9,100.9 36.7,100.1 			"/>
		</g>
		<g>
			<polygon class="st3" points="4.8,132.9 35.9,100.9 66.9,124.1 			"/>
		</g>
		<g>
			<polygon points="67.5,67.1 68.1,67.9 67.8,68.2 36.7,100.1 35.9,100.9 4.8,132.9 4.3,133.4 4,133 3.7,132.6 4,132.3 35.1,100.3 
				35.9,99.5 67,67.6 			"/>
		</g>
		<g>
			<polygon class="st3" points="67,67.6 35.9,99.5 4.9,76.3 			"/>
		</g>
		<g>
			<polygon class="st3" points="4.1,77.1 35.1,100.3 4,132.3 			"/>
		</g>
		<g>
			<path class="st1" d="M4.1,76.4L4.1,76.4L4.1,76.4z"/>
		</g>
		<g>
			<polygon points="4.9,76.3 35.9,99.5 35.1,100.3 4.1,77.1 3.8,76.9 4.1,76.4 4.4,76 			"/>
		</g>
	</g>
	<g>
		<polygon points="49,151.1 49,154.4 4,160.7 4,157.5 		"/>
	</g>
	<g>
		<polygon points="49,142.4 49,145.7 4,152 4,148.8 		"/>
	</g>
	<g>
		<polygon points="49,133.7 49,137 4,143.3 4,140.1 		"/>
	</g>
	<g>
		<polygon points="48.9,168.5 48.9,171.8 3.9,178.1 3.9,174.9 		"/>
	</g>
</g>
<g>
	<g>
		<polygon points="90.2,155.1 90.2,158.3 122.4,162.9 122.4,159.6 		"/>
	</g>
	<g>
		<polygon points="119.4,78.6 119.4,81.9 137.9,84.5 137.8,81.2 		"/>
	</g>
	<g class="st2">
		<g>
			<path class="st0" d="M141.1,213.5l-69.4-9.8L71.4,64l69.4,9.8L141.1,213.5z M106.3,147.7c13.5,1.9,24.4-8.4,24.3-22.9
				c0-14.5-11-27.9-24.4-29.7c-13.5-1.9-24.4,8.4-24.3,22.9C81.9,132.5,92.8,145.8,106.3,147.7 M83.8,165.1l45,6.3v-3.3l-45-6.3
				V165.1 M122.4,162.9v-3.3l-32.1-4.5v3.3L122.4,162.9 M137.8,81.2l-18.4-2.6v3.3l18.4,2.6V81.2 M97.6,174.6l17.5,2.5v-3.3
				l-17.5-2.5V174.6"/>
		</g>
		<g>
			<path d="M142.1,214.8l-71.4-10l-0.3-142l71.4,10L142.1,214.8z M71.7,203.8l69.4,9.8l-0.3-139.8L71.4,64L71.7,203.8"/>
		</g>
		<g>
			<polygon points="97.6,171.3 97.6,174.6 115.1,177.1 115.1,173.8 			"/>
		</g>
		<g>
			<polygon points="83.8,161.8 83.8,165.1 128.8,171.4 128.8,168.1 			"/>
		</g>
		<g>
			<path class="st3" d="M106.2,95.1c-13.5-1.9-24.4,8.4-24.3,22.9c0,14.5,11,27.9,24.4,29.8c13.5,1.9,24.4-8.4,24.3-22.9
				C130.6,110.3,119.6,97,106.2,95.1z"/>
		</g>
	</g>
</g>
<g>
	<g>
		<polygon points="175.4,120.2 175.4,123.5 149.1,127.2 149.1,123.9 		"/>
	</g>
	<g class="st2">
		<g>
			<polygon points="194.1,108.9 194.1,112.1 149.1,118.5 149.1,115.2 			"/>
		</g>
		<g>
			<path d="M141.4,72.8l71.4-10l-0.3,141.9l-71.4,10L141.4,72.8z M211.5,203.8L211.8,64l-69.4,9.8l-0.3,139.8L211.5,203.8"/>
		</g>
		<g>
			<path class="st0" d="M142.4,73.8l69.4-9.8l-0.3,139.8l-69.4,9.8L142.4,73.8z M208.7,201.1l0.1-73.1L145,194.3v15.8L208.7,201.1
				 M149.1,106.5v3.3l45-6.3v-3.3L149.1,106.5 M149.1,115.2v3.3l45-6.3v-3.3L149.1,115.2 M149.1,123.9v3.3l26.4-3.7v-3.3
				L149.1,123.9"/>
		</g>
		<g>
			<polygon points="194.1,100.2 194.1,103.4 149.1,109.8 149.1,106.5 			"/>
		</g>
	</g>
	<g>
		<polygon points="208.8,128 208.7,201.1 145,210.1 145,194.3 		"/>
	</g>
</g>
<g>
	<g>
		<path d="M283.5,214.8l-71.4-10l-0.3-141.9l71.4,10L283.5,214.8z M213,203.8l69.4,9.8l-0.3-139.8L212.8,64L213,203.8"/>
	</g>
	<g>
		<path class="st0" d="M282.5,213.5l-69.4-9.8L212.8,64l69.4,9.8L282.5,213.5z"/>
	</g>
</g>
</svg>
