<?xml version="1.0" encoding="utf-8"?>
<!-- Generator: Adobe Illustrator 22.0.1, SVG Export Plug-In . SVG Version: 6.00 Build 0)  -->
<svg version="1.1" id="레이어_1" xmlns="http://www.w3.org/2000/svg" xmlns:xlink="http://www.w3.org/1999/xlink" x="0px"
	 y="0px" viewBox="0 0 283.5 283.5" style="enable-background:new 0 0 283.5 283.5;" xml:space="preserve">
<style type="text/css">
	.st0{fill:#FFFFFF;}
	.st1{fill:#8EC6EF;}
</style>
<g>
	<path class="st0" d="M51.8,273.2h-6.6V141.5c0-27.6,22.5-50,50-50c27.6,0,50,22.5,50,50c0,24,19.5,43.5,43.5,43.5
		s43.5-19.5,43.5-43.5V9.7h6.6v131.7c0,27.6-22.5,50-50,50s-50-22.5-50-50c0-24-19.5-43.5-43.5-43.5s-43.5,19.5-43.5,43.5
		C51.8,141.4,51.8,273.2,51.8,273.2z"/>
</g>
<g>
	<circle class="st1" cx="48.5" cy="273.2" r="9.7"/>
</g>
<g>
	<circle class="st0" cx="48.5" cy="180.7" r="9.7"/>
</g>
<g>
	<circle class="st1" cx="76.3" cy="98.4" r="9.7"/>
</g>
<g>
	<circle class="st0" cx="142" cy="141.5" r="9.7"/>
</g>
<g>
	<circle class="st1" cx="225.7" cy="168.2" r="9.7"/>
</g>
<g>
	<circle class="st0" cx="235.5" cy="81.8" r="9.7"/>
</g>
<g>
	<circle class="st1" cx="235.5" cy="9.7" r="9.7"/>
</g>
</svg>
