<?xml version="1.0" encoding="utf-8"?>
<!-- Generator: Adobe Illustrator 22.0.1, SVG Export Plug-In . SVG Version: 6.00 Build 0)  -->
<svg version="1.1" id="레이어_1" xmlns="http://www.w3.org/2000/svg" xmlns:xlink="http://www.w3.org/1999/xlink" x="0px"
	 y="0px" viewBox="0 0 283.5 283.5" style="enable-background:new 0 0 283.5 283.5;" xml:space="preserve">
<style type="text/css">
	.st0{fill:#FFFFFF;}
	.st1{fill:#8EC6EF;}
</style>
<g>
	<path class="st0" d="M141.8,0c-29.5,0-53.5,24-53.5,53.5v92c0,27.6,20.9,50.3,47.7,53.2v73.2H94c-3.2,0-5.8,2.6-5.8,5.8
		s2.6,5.8,5.8,5.8h95.5c3.2,0,5.8-2.6,5.8-5.8s-2.6-5.8-5.8-5.8h-41.9v-73.2c26.8-2.9,47.7-25.6,47.7-53.2v-92
		C195.3,24,171.3,0,141.8,0z M141.8,11.6c23.1,0,41.9,18.8,41.9,41.9v58.7H99.8V53.5C99.8,30.4,118.6,11.6,141.8,11.6z M141.8,187.5
		c-23.1,0-41.9-18.8-41.9-41.9v-21.7h83.9v21.7C183.7,168.6,164.9,187.5,141.8,187.5z"/>
	<g>
		<path class="st1" d="M141.8,215.4c-38.6,0-69.9-31.4-69.9-69.9c0-3.2,2.6-5.8,5.8-5.8s5.8,2.6,5.8,5.8c0,32.2,26.2,58.3,58.3,58.3
			s58.3-26.2,58.3-58.3c0-3.2,2.6-5.8,5.8-5.8c3.2,0,5.8,2.6,5.8,5.8C211.7,184.1,180.3,215.4,141.8,215.4z"/>
	</g>
</g>
</svg>
