<?xml version="1.0" encoding="utf-8"?>
<!-- Generator: Adobe Illustrator 22.0.1, SVG Export Plug-In . SVG Version: 6.00 Build 0)  -->
<svg version="1.1" id="레이어_1" xmlns="http://www.w3.org/2000/svg" xmlns:xlink="http://www.w3.org/1999/xlink" x="0px"
	 y="0px" viewBox="0 0 283.5 283.5" style="enable-background:new 0 0 283.5 283.5;" xml:space="preserve">
<style type="text/css">
	.st0{fill:#DFDFDF;}
	.st1{fill:#8EC6EF;}
	.st2{fill:#FFFFFF;}
</style>
<g>
	<path class="st0" d="M140.3,277.6C70.1,277.6-1,261.4-1,230.4s71.1-47.2,141.3-47.2c70.2,0,141.3,16.2,141.3,47.2
		S210.5,277.6,140.3,277.6z M140.3,199.2C58,199.2,15,219.6,15,230.4s43,31.2,125.3,31.2s125.3-20.3,125.3-31.2
		S222.5,199.2,140.3,199.2z"/>
</g>
<g>
	<path class="st1" d="M73.7,261c-10.9,0-21.3-5.3-27.9-14.3c-6.4-9-8.1-20.1-4.7-30.5c0.7-2.1,2.9-3.2,5-2.6c2.1,0.7,3.2,2.9,2.6,5
		c-2.6,8-1.3,16.4,3.6,23.3c5,6.8,13,11,21.4,11c5.4,0,10.8-1.8,15.4-5.2c1.8-1.3,4.3-0.9,5.6,0.9c1.3,1.8,0.9,4.3-0.9,5.6
		C87.8,258.7,80.9,261,73.7,261z"/>
</g>
<g>
	<path class="st1" d="M222,178.9c-1.7,0-3.2-1.1-3.8-2.7c-3.6-10.7,0.2-22.4,9.4-29.1l36-26.1c8.4-6,12.2-15.5,10.4-25.5
		c-0.4-2.2,1-4.3,3.2-4.7c2.2-0.4,4.3,1,4.7,3.2c2.4,12.9-2.8,25.7-13.6,33.4l-36,26.1c-6.4,4.7-9,12.7-6.6,20.1
		c0.7,2.1-0.4,4.4-2.5,5.1C222.9,178.9,222.4,178.9,222,178.9z"/>
</g>
<g>
	<path class="st1" d="M76.3,73.7H32.4c-2.2,0-4-1.8-4-4s1.8-4,4-4h43.8c8.2,0,15.4-5.3,17.9-13.1L107.5,12c0.7-2.1,2.9-3.2,5-2.6
		c2.1,0.7,3.2,2.9,2.6,5l-13.3,40.6C98.3,66.2,88,73.7,76.3,73.7z"/>
</g>
<g>
	<path class="st2" d="M156.1,16.2l21.8,66.9h70.4c16,0,22.7,20.5,9.8,30.1l-57,41.4l21.8,66.9c5,15.2-12.5,28-25.6,18.6l-57-41.4
		L83.5,240c-13,9.4-30.6-3.2-25.6-18.6l21.8-66.9l-57-41.4c-13-9.4-6.2-30.1,9.8-30.1h70.4l21.8-66.9C129.5,1,151.1,1,156.1,16.2z"
		/>
</g>
</svg>
