<?xml version="1.0" encoding="utf-8"?>
<!-- Generator: Adobe Illustrator 22.0.1, SVG Export Plug-In . SVG Version: 6.00 Build 0)  -->
<svg version="1.1" id="레이어_1" focusable="false"
	 xmlns="http://www.w3.org/2000/svg" xmlns:xlink="http://www.w3.org/1999/xlink" x="0px" y="0px" viewBox="0 0 448 512"
	 style="enable-background:new 0 0 448 512;" xml:space="preserve">
<style type="text/css">
	.st0{fill:#FFFFFF;}
</style>
<path class="st0" d="M224,32L224,32C100.3,32,0,132.3,0,256v0c0,123.7,100.3,224,224,224h0c123.7,0,224-100.3,224-224v0
	C448,132.3,347.7,32,224,32z M352.8,189.6c-1,0.8-1.6,1.9-1.5,3.2c0.1,2.2,0.1,4.4,0.1,6.5c0,86.7-66,186.6-186.6,186.6
	c-31.4,0-61-7.7-86.9-21.3c-3.6-1.9-2.2-7.3,1.8-7.3c0.1,0,0.1,0,0.2,0c27,0,52.1-8,73-21.9c2.9-1.9,1.9-6.4-1.5-7
	c-22.1-3.8-40.5-18.5-49.1-38.4c-1.2-2.7,0.9-5.6,3.9-5.4c2.2,0.2,4.4,0.3,6.6,0.3c4.1,0,5.3-5.6,1.6-7.3
	C92.2,266.9,77,244.4,77,218.2v-0.8c4.8,2.7,10.1,4.8,15.6,6.3c3.8,1,6.5-3.6,3.7-6.4c-12-12.2-19-28.7-18.9-46.1
	c0-10.1,2.2-19.5,6.2-27.9c1.2-2.5,4.6-2.9,6.4-0.8c31.2,36.2,76.2,60,126.6,63.9c2.4,0.2,4.5-1.9,4.1-4.4
	c-6.1-42.3,26.2-75.9,64.8-75.9c18.1,0,34.5,7.3,46.4,19.2c0.9,0.9,2.2,1.4,3.5,1.1c10.5-2.2,20.6-5.7,30.1-10.3
	c3.3-1.6,6.9,1.9,5.1,5.2c-3.2,6.1-7.4,11.7-12.4,16.5c-2.8,2.7-0.3,7.4,3.5,6.5c3.3-0.8,6.6-1.8,9.9-2.8c3.7-1.2,6.6,3.1,4.2,6.1
	C369.1,175.8,361.3,183.2,352.8,189.6z"/>
</svg>
